<svg xmlns="http://www.w3.org/2000/svg" viewBox="0 0 120 120"><defs><linearGradient id="g" x1="0" y1="0" x2="0.6" y2="1">
  <stop offset="0%" stop-color="#F0D070"/><stop offset="100%" stop-color="#D9A93A"/>
</linearGradient></defs>
  <g transform="translate(18.0,18.0) scale(0.1641)"><path d="M256 96c-50.3 0-98.8 8.3-143.5 23.7 14.4-36.4 34.5-65.3 57.6-82.4 10.7-7.9 21.4-13 31.6-15.1 10.2-2.1 18.9-1.2 26.1 2.5 7.5 3.9 14.9 11.5 21.1 23.9 .8 1.6 1.6 3.4 2.4 5.2 1.5-.1 3.1-.1 4.7-.1s3.1 0 4.7 .1c.8-1.8 1.6-3.5 2.4-5.2 6.2-12.4 13.6-20 21.1-23.9 7.2-3.7 15.9-4.6 26.1-2.5 10.2 2.1 20.9 7.2 31.6 15.1 23.1 17.1 43.2 46 57.6 82.4C354.8 104.3 306.3 96 256 96zM192 256a64 64 0 1 1 128 0 64 64 0 1 1 -128 0z" fill="url(#g)"/></g>
</svg>