<svg xmlns="http://www.w3.org/2000/svg" viewBox="0 0 120 120"><defs><linearGradient id="g" x1="0" y1="0" x2="0.6" y2="1">
  <stop offset="0%" stop-color="#F0D070"/><stop offset="100%" stop-color="#D9A93A"/>
</linearGradient></defs>
  <g transform="translate(28.5,18.0) scale(0.1641)"><path d="M173.8 5.5c11-7.3 25.4-7.3 36.4 0L228 17.2c6 3.9 13 5.8 20.1 5.4l21.3-1.3c13.2-.8 25.6 6.4 31.5 18.2l9.6 19.1c3.2 6.4 8.4 11.5 14.7 14.7L344 83c11.8 5.9 19 18.3 18.2 31.5l-1.3 21.3c-.4 7.1 1.5 14.2 5.4 20.1l11.8 17.8c7.3 11 7.3 25.4 0 36.4L366.2 229c-3.9 6-5.8 13-5.4 20.1l1.3 21.3c.8 13.2-6.4 25.6-18.2 31.5l-19.1 9.6c-6.4 3.2-11.5 8.4-14.7 14.7L300.9 345c-5.9 11.8-18.3 19-31.5 18.2l-21.3-1.3c-7.1-.4-14.2 1.5-20.1 5.4l-17.8 11.8c-11 7.3-25.4 7.3-36.4 0L156 367.2c-6-3.9-13-5.8-20.1-5.4l-21.3 1.3c-13.2 .8-25.6-6.4-31.5-18.2l-9.6-19.1c-3.2-6.4-8.4-11.5-14.7-14.7L39.6 301.5c-1.5-.7-2.9-1.6-4.3-2.5L67.4 367.9 24.6 512 192 433.6 359.4 512 316.6 365.4l32.1-68.9c-1.4 .9-2.8 1.7-4.3 2.5z M192 96a96 96 0 1 1 0 192 96 96 0 1 1 0-192z" fill="url(#g)"/></g>
</svg>