<svg xmlns="http://www.w3.org/2000/svg" viewBox="0 0 120 120">
  <defs><linearGradient id="g" x1="0" y1="0" x2="1" y2="1">
    <stop offset="0%" stop-color="#E8C24A"/><stop offset="60%" stop-color="#C8102E"/><stop offset="100%" stop-color="#A4123F"/>
  </linearGradient></defs>
  <g transform="translate(23.2,18.0) scale(0.1641)">
    <path d="M288 0L160 0 128 0C110.3 0 96 14.3 96 32s14.3 32 32 32l0 132.8c0 11.8-3.3 23.5-9.5 33.5L13.3 406.2C4.6 420.3 0 436.6 0 453.3 0 502.3 39.7 542 88.7 542l270.6 0c49 0 88.7-39.7 88.7-88.7 0-16.7-4.6-33-13.3-47.1L329.5 230.3c-6.2-10.1-9.5-21.7-9.5-33.5L320 64c17.7 0 32-14.3 32-32s-14.3-32-32-32L288 0zM192 196.8L192 64l64 0 0 132.8c0 23.7 6.6 46.9 19 67.1L309.5 320l-171 0L173 263.9c12.4-20.2 19-43.4 19-67.1z" fill="url(#g)"/>
  </g>
</svg>