<svg xmlns="http://www.w3.org/2000/svg" viewBox="0 0 120 120" fill="none">
  <defs>
    <linearGradient id="g" x1="0" y1="0" x2="0" y2="1">
      <stop offset="0%" stop-color="#EAF6FA"/><stop offset="100%" stop-color="#BFE0EA"/>
    </linearGradient>
  </defs>
  <g stroke="#7FB5C4" stroke-width="1.6" fill="url(#g)" stroke-linejoin="round" stroke-linecap="round">
    <!-- palm -->
    <path d="M42 62 L42 86 C42 94 48 100 58 100 L66 100 C76 100 82 93 82 84 L82 66 Z"/>
    <!-- fingers -->
    <rect x="45" y="34" width="9" height="34" rx="4.5"/>
    <rect x="56" y="28" width="9" height="40" rx="4.5"/>
    <rect x="67" y="33" width="9" height="35" rx="4.5"/>
    <rect x="77" y="44" width="8" height="26" rx="4"/>
    <!-- thumb -->
    <path d="M42 66 C34 64 28 68 27 74 C26 79 31 82 37 80 L44 76"/>
  </g>
  <!-- cuff -->
  <path d="M42 92 L82 92" stroke="#A4123F" stroke-width="3.5" opacity="0.9"/>
</svg>
