<svg xmlns="http://www.w3.org/2000/svg" viewBox="0 0 120 120" fill="none">
  <defs>
    <linearGradient id="ring" x1="0" y1="0" x2="1" y2="1">
      <stop offset="0%" stop-color="#E0B83C"/><stop offset="60%" stop-color="#C8102E"/><stop offset="100%" stop-color="#A4123F"/>
    </linearGradient>
    <linearGradient id="glove" x1="0" y1="0" x2="0" y2="1">
      <stop offset="0%" stop-color="#FBFBFD"/><stop offset="100%" stop-color="#DBDDE5"/>
    </linearGradient>
  </defs>
  <circle cx="60" cy="60" r="54" stroke="url(#ring)" stroke-width="4" opacity="0.9"/>
  <!-- left hand -->
  <g transform="translate(-2,0)">
  <path d="M44 96 L44 64 C44 61 47 61 47 64 L47 60 C47 57 50 57 50 60 L50 58 C50 55 53 55 53 58 L53 60 L53 50 C53 47 56 47 56 50 L56 66 L56 96 Z" fill="url(#glove)" stroke="#C2C4CE" stroke-width="1.4"/>
  <path d="M44 90 L56 90" stroke="#AEB0BC" stroke-width="2.4"/>
  </g>
  <!-- right hand (mirrored) -->
  <g transform="translate(122,0) scale(-1,1)">
  <path d="M44 96 L44 64 C44 61 47 61 47 64 L47 60 C47 57 50 57 50 60 L50 58 C50 55 53 55 53 58 L53 60 L53 50 C53 47 56 47 56 50 L56 66 L56 96 Z" fill="url(#glove)" stroke="#C2C4CE" stroke-width="1.4"/>
  <path d="M44 90 L56 90" stroke="#AEB0BC" stroke-width="2.4"/>
  </g>
</svg>
