<svg xmlns="http://www.w3.org/2000/svg" viewBox="0 0 120 120">
  <defs><linearGradient id="g" x1="0" y1="0" x2="1" y2="1">
    <stop offset="0%" stop-color="#E8C24A"/><stop offset="60%" stop-color="#C8102E"/><stop offset="100%" stop-color="#A4123F"/>
  </linearGradient></defs>
  <g transform="translate(18.0,22.7) scale(0.1458)">
    <path d="M0 224.2C0 100.6 100.2 0 224 0l99.9 0C434.9 0 528 86.1 528 197.9c0 35.7-9.6 70.7-27.8 101.4L416 442.2 416 480c0 17.7-14.3 32-32 32l-128 0c-17.7 0-32-14.3-32-32l0-32-32 0c-35.3 0-64-28.7-64-64l0-71.8C40.9 308.7 0 270.8 0 224.2zM176 96l-16 0c-8.8 0-16 7.2-16 16s7.2 16 16 16l16 0c8.8 0 16-7.2 16-16s-7.2-16-16-16zM160 416l256 0 0-32-256 0 0 32zm0-64l268.5 0 12.6-21-281.1 0 0 21z" fill="url(#g)"/>
  </g>
</svg>