<svg xmlns="http://www.w3.org/2000/svg" viewBox="0 0 120 120" fill="none">
  <defs>
    <linearGradient id="ring" x1="0" y1="0" x2="1" y2="1">
      <stop offset="0%" stop-color="#E0B83C"/><stop offset="60%" stop-color="#C8102E"/><stop offset="100%" stop-color="#A4123F"/>
    </linearGradient>
    <linearGradient id="m" x1="0" y1="0" x2="0" y2="1">
      <stop offset="0%" stop-color="#FBFBFD"/><stop offset="100%" stop-color="#DBDDE5"/>
    </linearGradient>
  </defs>
  <circle cx="60" cy="60" r="54" stroke="url(#ring)" stroke-width="4" opacity="0.9"/>
  <!-- ear loops -->
  <path d="M40 48 C26 48 26 78 42 80" fill="none" stroke="#AEB0BC" stroke-width="3"/>
  <path d="M80 48 C94 48 94 78 78 80" fill="none" stroke="#AEB0BC" stroke-width="3"/>
  <!-- mask body -->
  <path d="M38 48 C50 44 70 44 82 48 L80 76 C70 84 50 84 40 76 Z" fill="url(#m)" stroke="#C2C4CE" stroke-width="1.5"/>
  <!-- pleats -->
  <path d="M40 58 L80 58 M41 65 L79 65 M43 72 L77 72" stroke="#CDCFD8" stroke-width="1.4"/>
  <!-- nose wire -->
  <path d="M48 50 C55 47 65 47 72 50" fill="none" stroke="#AEB0BC" stroke-width="2"/>
</svg>
