<svg xmlns="http://www.w3.org/2000/svg" viewBox="0 0 120 120">
  <defs><linearGradient id="g" x1="0" y1="0" x2="1" y2="1">
    <stop offset="0%" stop-color="#E8C24A"/><stop offset="60%" stop-color="#C8102E"/><stop offset="100%" stop-color="#A4123F"/>
  </linearGradient></defs>
  <g transform="translate(18.0,18.0) scale(0.1641)">
    <path d="M160 32c0-17.7 14.3-32 32-32 53 0 96 43 96 96 0 23.8-8.7 45.6-23 62.4 1.1 .9 2.2 1.9 3.2 2.9l24 24c12.5 12.5 12.5 32.8 0 45.3l-9.4 9.4c-12.5 12.5-32.8 12.5-45.3 0l-24-24c-1-1-2-2.1-2.9-3.2C193.6 231.3 171.8 240 148 240l-4 0 0-48 4 0c26.5 0 48-21.5 48-48s-21.5-48-48-48l-4 0 0-32 12 0c0-17.7 0-32 4-32zM64 384l384 0c17.7 0 32 14.3 32 32s-14.3 32-32 32L320 448c0 35.3-28.7 64-64 64s-64-28.7-64-64L64 448c-17.7 0-32-14.3-32-32s14.3-32 32-32zm32-64l160 0c17.7 0 32 14.3 32 32l-224 0c0-17.7 14.3-32 32-32z" fill="url(#g)"/>
  </g>
</svg>