<svg xmlns="http://www.w3.org/2000/svg" viewBox="0 0 120 120"><defs><linearGradient id="g" x1="0" y1="0" x2="0.6" y2="1">
  <stop offset="0%" stop-color="#F0D070"/><stop offset="100%" stop-color="#D9A93A"/>
</linearGradient></defs>
  <g transform="translate(18.0,18.0) scale(0.1641)"><path d="M256 0c4.6 0 9.2 1 13.4 2.9L457.7 82.8c22 9.3 38.4 31 38.3 57.2-.5 99.2-41.3 280.7-213.6 363.2-16.7 8-36.1 8-52.8 0C57.3 420.7 16.5 239.2 16 140 15.9 113.8 32.3 92.1 54.3 82.8L242.7 2.9C246.8 1 251.4 0 256 0zM164.1 325.5C182 346.2 212.6 368.7 240 384.4l0-187.2c-19.1-42.5-49.7-71.2-91.9-71.2-50.5 0-91.9 44.8-91.9 99.8 0 21.8 6.5 42 17.6 58.6 21.5 32.2 56 56.5 90.3 76.1z" fill="url(#g)"/></g>
</svg>