<svg xmlns="http://www.w3.org/2000/svg" viewBox="0 0 120 120"><defs><linearGradient id="g" x1="0" y1="0" x2="0.6" y2="1">
  <stop offset="0%" stop-color="#F0D070"/><stop offset="100%" stop-color="#D9A93A"/>
</linearGradient></defs>
  <g transform="translate(33.8,18.0) scale(0.1641)"><path d="M160 64c-26.5 0-48 21.5-48 48l0 196.7c-19.1 16.2-32 40.7-32 67.3 0 44.2 35.8 80 80 80s80-35.8 80-80c0-26.6-12.9-51.1-32-67.3L208 112c0-26.5-21.5-48-48-48zm0-64c61.9 0 112 50.1 112 112l0 169.5c20 25.9 32 58.4 32 93.8 0 79.5-64.5 144-144 144S16 463.5 16 384c0-35.4 12-67.9 32-93.8L48 112C48 50.1 98.1 0 160 0z" fill="url(#g)"/></g>
</svg>