<svg xmlns="http://www.w3.org/2000/svg" viewBox="0 0 120 120">
  <defs><linearGradient id="g" x1="0" y1="0" x2="1" y2="1">
    <stop offset="0%" stop-color="#E8C24A"/><stop offset="60%" stop-color="#C8102E"/><stop offset="100%" stop-color="#A4123F"/>
  </linearGradient></defs>
  <g transform="translate(18.0,26.4) scale(0.1313)">
    <path d="M224 256A128 128 0 1 0 224 0a128 128 0 1 0 0 256zm-45.7 48C79.8 304 0 383.8 0 482.3C0 498.7 13.3 512 29.7 512l268.6 0c-1.7-5.1-2.7-10.5-2.9-16.1c-21.4-10.1-39.2-23.6-53.1-39.4c-19.3-21.9-31.3-47.9-37.4-72.6c-5.5-22.1-6.1-43.5-3.9-61.7c-7.7-1.4-15.6-2.1-23.7-2.1l-37.3 0zm223.7 17.6L448 343.8l46.1 19.2-46.1 19.2 0 0c0 0-46.1-19.2-46.1-19.2L448 376.8zm0-89.6c-3.9 0-7.9 .9-11.6 2.7l-152 60c-11.4 4.5-19.4 16.1-19.4 28.8c0 .3 0 .7 0 1c2 79.6 49.3 156.3 152 184.4c19.4 5.3 39.7 5.3 59.1 0c102.7-28.1 150-104.8 152-184.4c0-.3 0-.7 0-1c0-12.7-8-24.3-19.4-28.8l-152-60c-3.7-1.5-7.7-2.4-11.6-2.7z" fill="url(#g)"/>
  </g>
</svg>