<svg xmlns="http://www.w3.org/2000/svg" viewBox="0 0 120 120"><defs><linearGradient id="g" x1="0" y1="0" x2="0.6" y2="1">
  <stop offset="0%" stop-color="#F0D070"/><stop offset="100%" stop-color="#D9A93A"/>
</linearGradient></defs>
  <g transform="translate(18.0,18.0) scale(0.1641)"><path d="M288 32c0 17.7 14.3 32 32 32l32 0c17.7 0 32 14.3 32 32s-14.3 32-32 32L32 128c-17.7 0-32 14.3-32 32s14.3 32 32 32l320 0c53 0 96-43 96-96s-43-96-96-96l-32 0c-17.7 0-32 14.3-32 32zm64 352c0 17.7 14.3 32 32 32l32 0c53 0 96-43 96-96s-43-96-96-96L32 224c-17.7 0-32 14.3-32 32s14.3 32 32 32l384 0c17.7 0 32 14.3 32 32s-14.3 32-32 32l-32 0c-17.7 0-32 14.3-32 32zM128 512l32 0c53 0 96-43 96-96s-43-96-96-96L32 320c-17.7 0-32 14.3-32 32s14.3 32 32 32l128 0c17.7 0 32 14.3 32 32s-14.3 32-32 32l-32 0c-17.7 0-32 14.3-32 32s14.3 32 32 32z" fill="url(#g)"/></g>
</svg>